<svg xmlns="http://www.w3.org/2000/svg" width="1245" height="200" viewBox="0 0 1245 200" role="img" aria-labelledby="title desc">
  <title id="title">Developer activity pixel grid</title>
  <desc id="desc">A dark grid of rounded squares with a small purple highlight and green activity squares on the right.</desc>
  <rect width="1245" height="200" rx="10" fill="#0d1117"/>
  <g fill="#161b22">
    <rect x="34" y="14" width="17" height="17" rx="3"/>
    <rect x="56" y="14" width="17" height="17" rx="3"/>
    <rect x="78" y="14" width="17" height="17" rx="3"/>
    <rect x="100" y="14" width="17" height="17" rx="3"/>
    <rect x="122" y="14" width="17" height="17" rx="3"/>
    <rect x="144" y="14" width="17" height="17" rx="3"/>
    <rect x="166" y="14" width="17" height="17" rx="3"/>
    <rect x="188" y="14" width="17" height="17" rx="3"/>
    <rect x="210" y="14" width="17" height="17" rx="3"/>
    <rect x="232" y="14" width="17" height="17" rx="3"/>
    <rect x="254" y="14" width="17" height="17" rx="3"/>
    <rect x="276" y="14" width="17" height="17" rx="3"/>
    <rect x="298" y="14" width="17" height="17" rx="3"/>
    <rect x="320" y="14" width="17" height="17" rx="3"/>
    <rect x="342" y="14" width="17" height="17" rx="3"/>
    <rect x="364" y="14" width="17" height="17" rx="3"/>
    <rect x="386" y="14" width="17" height="17" rx="3"/>
    <rect x="408" y="14" width="17" height="17" rx="3"/>
    <rect x="430" y="14" width="17" height="17" rx="3"/>
    <rect x="452" y="14" width="17" height="17" rx="3"/>
    <rect x="474" y="14" width="17" height="17" rx="3"/>
    <rect x="496" y="14" width="17" height="17" rx="3"/>
    <rect x="518" y="14" width="17" height="17" rx="3"/>
    <rect x="540" y="14" width="17" height="17" rx="3"/>
    <rect x="562" y="14" width="17" height="17" rx="3"/>
    <rect x="584" y="14" width="17" height="17" rx="3"/>
    <rect x="606" y="14" width="17" height="17" rx="3"/>
    <rect x="628" y="14" width="17" height="17" rx="3"/>
    <rect x="650" y="14" width="17" height="17" rx="3"/>
    <rect x="672" y="14" width="17" height="17" rx="3"/>
    <rect x="694" y="14" width="17" height="17" rx="3"/>
    <rect x="716" y="14" width="17" height="17" rx="3"/>
    <rect x="738" y="14" width="17" height="17" rx="3"/>
    <rect x="760" y="14" width="17" height="17" rx="3"/>
    <rect x="782" y="14" width="17" height="17" rx="3"/>
    <rect x="804" y="14" width="17" height="17" rx="3"/>
    <rect x="826" y="14" width="17" height="17" rx="3"/>
    <rect x="848" y="14" width="17" height="17" rx="3"/>
    <rect x="870" y="14" width="17" height="17" rx="3"/>
    <rect x="892" y="14" width="17" height="17" rx="3"/>
    <rect x="914" y="14" width="17" height="17" rx="3"/>
    <rect x="936" y="14" width="17" height="17" rx="3"/>
    <rect x="958" y="14" width="17" height="17" rx="3"/>
    <rect x="980" y="14" width="17" height="17" rx="3"/>
    <rect x="1002" y="14" width="17" height="17" rx="3"/>
    <rect x="1024" y="14" width="17" height="17" rx="3"/>
    <rect x="1046" y="14" width="17" height="17" rx="3"/>
    <rect x="1068" y="14" width="17" height="17" rx="3"/>
    <rect x="1090" y="14" width="17" height="17" rx="3"/>
    <rect x="1112" y="14" width="17" height="17" rx="3"/>
    <rect x="1134" y="14" width="17" height="17" rx="3"/>
    <rect x="1156" y="14" width="17" height="17" rx="3"/>
    <rect x="1178" y="14" width="17" height="17" rx="3"/>
    <rect x="1200" y="14" width="17" height="17" rx="3"/>
    <rect x="1222" y="14" width="17" height="17" rx="3"/>
    <rect x="34" y="36.5" width="17" height="17" rx="3"/>
    <rect x="56" y="36.5" width="17" height="17" rx="3"/>
    <rect x="78" y="36.5" width="17" height="17" rx="3"/>
    <rect x="100" y="36.5" width="17" height="17" rx="3"/>
    <rect x="122" y="36.5" width="17" height="17" rx="3"/>
    <rect x="144" y="36.5" width="17" height="17" rx="3"/>
    <rect x="166" y="36.5" width="17" height="17" rx="3"/>
    <rect x="188" y="36.5" width="17" height="17" rx="3"/>
    <rect x="210" y="36.5" width="17" height="17" rx="3"/>
    <rect x="232" y="36.5" width="17" height="17" rx="3"/>
    <rect x="254" y="36.5" width="17" height="17" rx="3"/>
    <rect x="276" y="36.5" width="17" height="17" rx="3"/>
    <rect x="298" y="36.5" width="17" height="17" rx="3"/>
    <rect x="320" y="36.5" width="17" height="17" rx="3"/>
    <rect x="342" y="36.5" width="17" height="17" rx="3"/>
    <rect x="364" y="36.5" width="17" height="17" rx="3"/>
    <rect x="386" y="36.5" width="17" height="17" rx="3"/>
    <rect x="408" y="36.5" width="17" height="17" rx="3"/>
    <rect x="430" y="36.5" width="17" height="17" rx="3"/>
    <rect x="452" y="36.5" width="17" height="17" rx="3"/>
    <rect x="474" y="36.5" width="17" height="17" rx="3"/>
    <rect x="496" y="36.5" width="17" height="17" rx="3"/>
    <rect x="518" y="36.5" width="17" height="17" rx="3"/>
    <rect x="540" y="36.5" width="17" height="17" rx="3"/>
    <rect x="562" y="36.5" width="17" height="17" rx="3"/>
    <rect x="584" y="36.5" width="17" height="17" rx="3"/>
    <rect x="606" y="36.5" width="17" height="17" rx="3"/>
    <rect x="628" y="36.5" width="17" height="17" rx="3"/>
    <rect x="650" y="36.5" width="17" height="17" rx="3"/>
    <rect x="672" y="36.5" width="17" height="17" rx="3"/>
    <rect x="694" y="36.5" width="17" height="17" rx="3"/>
    <rect x="716" y="36.5" width="17" height="17" rx="3"/>
    <rect x="738" y="36.5" width="17" height="17" rx="3"/>
    <rect x="760" y="36.5" width="17" height="17" rx="3"/>
    <rect x="782" y="36.5" width="17" height="17" rx="3"/>
    <rect x="804" y="36.5" width="17" height="17" rx="3"/>
    <rect x="826" y="36.5" width="17" height="17" rx="3"/>
    <rect x="848" y="36.5" width="17" height="17" rx="3"/>
    <rect x="870" y="36.5" width="17" height="17" rx="3"/>
    <rect x="892" y="36.5" width="17" height="17" rx="3"/>
    <rect x="914" y="36.5" width="17" height="17" rx="3"/>
    <rect x="936" y="36.5" width="17" height="17" rx="3"/>
    <rect x="958" y="36.5" width="17" height="17" rx="3"/>
    <rect x="980" y="36.5" width="17" height="17" rx="3"/>
    <rect x="1002" y="36.5" width="17" height="17" rx="3"/>
    <rect x="1024" y="36.5" width="17" height="17" rx="3"/>
    <rect x="1046" y="36.5" width="17" height="17" rx="3"/>
    <rect x="1068" y="36.5" width="17" height="17" rx="3"/>
    <rect x="1090" y="36.5" width="17" height="17" rx="3"/>
    <rect x="1112" y="36.5" width="17" height="17" rx="3"/>
    <rect x="1134" y="36.5" width="17" height="17" rx="3"/>
    <rect x="1156" y="36.5" width="17" height="17" rx="3"/>
    <rect x="1178" y="36.5" width="17" height="17" rx="3"/>
    <rect x="1200" y="36.5" width="17" height="17" rx="3"/>
    <rect x="1222" y="36.5" width="17" height="17" rx="3"/>
    <rect x="34" y="59" width="17" height="17" rx="3"/>
    <rect x="56" y="59" width="17" height="17" rx="3"/>
    <rect x="78" y="59" width="17" height="17" rx="3"/>
    <rect x="100" y="59" width="17" height="17" rx="3"/>
    <rect x="122" y="59" width="17" height="17" rx="3"/>
    <rect x="144" y="59" width="17" height="17" rx="3"/>
    <rect x="166" y="59" width="17" height="17" rx="3"/>
    <rect x="188" y="59" width="17" height="17" rx="3"/>
    <rect x="210" y="59" width="17" height="17" rx="3"/>
    <rect x="232" y="59" width="17" height="17" rx="3"/>
    <rect x="254" y="59" width="17" height="17" rx="3"/>
    <rect x="276" y="59" width="17" height="17" rx="3"/>
    <rect x="298" y="59" width="17" height="17" rx="3"/>
    <rect x="320" y="59" width="17" height="17" rx="3"/>
    <rect x="342" y="59" width="17" height="17" rx="3"/>
    <rect x="364" y="59" width="17" height="17" rx="3"/>
    <rect x="386" y="59" width="17" height="17" rx="3"/>
    <rect x="408" y="59" width="17" height="17" rx="3"/>
    <rect x="430" y="59" width="17" height="17" rx="3"/>
    <rect x="452" y="59" width="17" height="17" rx="3"/>
    <rect x="474" y="59" width="17" height="17" rx="3"/>
    <rect x="496" y="59" width="17" height="17" rx="3"/>
    <rect x="518" y="59" width="17" height="17" rx="3"/>
    <rect x="540" y="59" width="17" height="17" rx="3"/>
    <rect x="562" y="59" width="17" height="17" rx="3"/>
    <rect x="584" y="59" width="17" height="17" rx="3"/>
    <rect x="606" y="59" width="17" height="17" rx="3"/>
    <rect x="628" y="59" width="17" height="17" rx="3"/>
    <rect x="650" y="59" width="17" height="17" rx="3"/>
    <rect x="672" y="59" width="17" height="17" rx="3"/>
    <rect x="694" y="59" width="17" height="17" rx="3"/>
    <rect x="716" y="59" width="17" height="17" rx="3"/>
    <rect x="738" y="59" width="17" height="17" rx="3"/>
    <rect x="760" y="59" width="17" height="17" rx="3"/>
    <rect x="782" y="59" width="17" height="17" rx="3"/>
    <rect x="804" y="59" width="17" height="17" rx="3"/>
    <rect x="826" y="59" width="17" height="17" rx="3"/>
    <rect x="848" y="59" width="17" height="17" rx="3"/>
    <rect x="870" y="59" width="17" height="17" rx="3"/>
    <rect x="892" y="59" width="17" height="17" rx="3"/>
    <rect x="914" y="59" width="17" height="17" rx="3"/>
    <rect x="936" y="59" width="17" height="17" rx="3"/>
    <rect x="958" y="59" width="17" height="17" rx="3"/>
    <rect x="980" y="59" width="17" height="17" rx="3"/>
    <rect x="1002" y="59" width="17" height="17" rx="3"/>
    <rect x="1024" y="59" width="17" height="17" rx="3"/>
    <rect x="1046" y="59" width="17" height="17" rx="3"/>
    <rect x="1068" y="59" width="17" height="17" rx="3"/>
    <rect x="1090" y="59" width="17" height="17" rx="3"/>
    <rect x="1112" y="59" width="17" height="17" rx="3"/>
    <rect x="1134" y="59" width="17" height="17" rx="3"/>
    <rect x="1156" y="59" width="17" height="17" rx="3"/>
    <rect x="1178" y="59" width="17" height="17" rx="3"/>
    <rect x="1200" y="59" width="17" height="17" rx="3"/>
    <rect x="1222" y="59" width="17" height="17" rx="3"/>
    <rect x="34" y="81.5" width="17" height="17" rx="3"/>
    <rect x="56" y="81.5" width="17" height="17" rx="3"/>
    <rect x="78" y="81.5" width="17" height="17" rx="3"/>
    <rect x="100" y="81.5" width="17" height="17" rx="3"/>
    <rect x="122" y="81.5" width="17" height="17" rx="3"/>
    <rect x="144" y="81.5" width="17" height="17" rx="3"/>
    <rect x="166" y="81.5" width="17" height="17" rx="3"/>
    <rect x="188" y="81.5" width="17" height="17" rx="3"/>
    <rect x="210" y="81.5" width="17" height="17" rx="3"/>
    <rect x="232" y="81.5" width="17" height="17" rx="3"/>
    <rect x="254" y="81.5" width="17" height="17" rx="3"/>
    <rect x="276" y="81.5" width="17" height="17" rx="3"/>
    <rect x="298" y="81.5" width="17" height="17" rx="3"/>
    <rect x="320" y="81.5" width="17" height="17" rx="3"/>
    <rect x="342" y="81.5" width="17" height="17" rx="3"/>
    <rect x="364" y="81.5" width="17" height="17" rx="3"/>
    <rect x="386" y="81.5" width="17" height="17" rx="3"/>
    <rect x="408" y="81.5" width="17" height="17" rx="3"/>
    <rect x="430" y="81.5" width="17" height="17" rx="3"/>
    <rect x="452" y="81.5" width="17" height="17" rx="3"/>
    <rect x="474" y="81.5" width="17" height="17" rx="3"/>
    <rect x="496" y="81.5" width="17" height="17" rx="3"/>
    <rect x="518" y="81.5" width="17" height="17" rx="3"/>
    <rect x="540" y="81.5" width="17" height="17" rx="3"/>
    <rect x="562" y="81.5" width="17" height="17" rx="3"/>
    <rect x="584" y="81.5" width="17" height="17" rx="3"/>
    <rect x="606" y="81.5" width="17" height="17" rx="3"/>
    <rect x="628" y="81.5" width="17" height="17" rx="3"/>
    <rect x="650" y="81.5" width="17" height="17" rx="3"/>
    <rect x="672" y="81.5" width="17" height="17" rx="3"/>
    <rect x="694" y="81.5" width="17" height="17" rx="3"/>
    <rect x="716" y="81.5" width="17" height="17" rx="3"/>
    <rect x="738" y="81.5" width="17" height="17" rx="3"/>
    <rect x="760" y="81.5" width="17" height="17" rx="3"/>
    <rect x="782" y="81.5" width="17" height="17" rx="3"/>
    <rect x="804" y="81.5" width="17" height="17" rx="3"/>
    <rect x="826" y="81.5" width="17" height="17" rx="3"/>
    <rect x="848" y="81.5" width="17" height="17" rx="3"/>
    <rect x="870" y="81.5" width="17" height="17" rx="3"/>
    <rect x="892" y="81.5" width="17" height="17" rx="3"/>
    <rect x="914" y="81.5" width="17" height="17" rx="3"/>
    <rect x="936" y="81.5" width="17" height="17" rx="3"/>
    <rect x="958" y="81.5" width="17" height="17" rx="3"/>
    <rect x="980" y="81.5" width="17" height="17" rx="3"/>
    <rect x="1002" y="81.5" width="17" height="17" rx="3"/>
    <rect x="1024" y="81.5" width="17" height="17" rx="3"/>
    <rect x="1046" y="81.5" width="17" height="17" rx="3"/>
    <rect x="1068" y="81.5" width="17" height="17" rx="3"/>
    <rect x="1090" y="81.5" width="17" height="17" rx="3"/>
    <rect x="1112" y="81.5" width="17" height="17" rx="3"/>
    <rect x="1134" y="81.5" width="17" height="17" rx="3"/>
    <rect x="1156" y="81.5" width="17" height="17" rx="3"/>
    <rect x="1178" y="81.5" width="17" height="17" rx="3"/>
    <rect x="1200" y="81.5" width="17" height="17" rx="3"/>
    <rect x="1222" y="81.5" width="17" height="17" rx="3"/>
    <rect x="34" y="104" width="17" height="17" rx="3"/>
    <rect x="56" y="104" width="17" height="17" rx="3"/>
    <rect x="78" y="104" width="17" height="17" rx="3"/>
    <rect x="100" y="104" width="17" height="17" rx="3"/>
    <rect x="122" y="104" width="17" height="17" rx="3"/>
    <rect x="144" y="104" width="17" height="17" rx="3"/>
    <rect x="166" y="104" width="17" height="17" rx="3"/>
    <rect x="188" y="104" width="17" height="17" rx="3"/>
    <rect x="210" y="104" width="17" height="17" rx="3"/>
    <rect x="232" y="104" width="17" height="17" rx="3"/>
    <rect x="254" y="104" width="17" height="17" rx="3"/>
    <rect x="276" y="104" width="17" height="17" rx="3"/>
    <rect x="298" y="104" width="17" height="17" rx="3"/>
    <rect x="320" y="104" width="17" height="17" rx="3"/>
    <rect x="342" y="104" width="17" height="17" rx="3"/>
    <rect x="364" y="104" width="17" height="17" rx="3"/>
    <rect x="386" y="104" width="17" height="17" rx="3"/>
    <rect x="408" y="104" width="17" height="17" rx="3"/>
    <rect x="430" y="104" width="17" height="17" rx="3"/>
    <rect x="452" y="104" width="17" height="17" rx="3"/>
    <rect x="474" y="104" width="17" height="17" rx="3"/>
    <rect x="496" y="104" width="17" height="17" rx="3"/>
    <rect x="518" y="104" width="17" height="17" rx="3"/>
    <rect x="540" y="104" width="17" height="17" rx="3"/>
    <rect x="562" y="104" width="17" height="17" rx="3"/>
    <rect x="584" y="104" width="17" height="17" rx="3"/>
    <rect x="606" y="104" width="17" height="17" rx="3"/>
    <rect x="628" y="104" width="17" height="17" rx="3"/>
    <rect x="650" y="104" width="17" height="17" rx="3"/>
    <rect x="672" y="104" width="17" height="17" rx="3"/>
    <rect x="694" y="104" width="17" height="17" rx="3"/>
    <rect x="716" y="104" width="17" height="17" rx="3"/>
    <rect x="738" y="104" width="17" height="17" rx="3"/>
    <rect x="760" y="104" width="17" height="17" rx="3"/>
    <rect x="782" y="104" width="17" height="17" rx="3"/>
    <rect x="804" y="104" width="17" height="17" rx="3"/>
    <rect x="826" y="104" width="17" height="17" rx="3"/>
    <rect x="848" y="104" width="17" height="17" rx="3"/>
    <rect x="870" y="104" width="17" height="17" rx="3"/>
    <rect x="892" y="104" width="17" height="17" rx="3"/>
    <rect x="914" y="104" width="17" height="17" rx="3"/>
    <rect x="936" y="104" width="17" height="17" rx="3"/>
    <rect x="958" y="104" width="17" height="17" rx="3"/>
    <rect x="980" y="104" width="17" height="17" rx="3"/>
    <rect x="1002" y="104" width="17" height="17" rx="3"/>
    <rect x="1024" y="104" width="17" height="17" rx="3"/>
    <rect x="1046" y="104" width="17" height="17" rx="3"/>
    <rect x="1068" y="104" width="17" height="17" rx="3"/>
    <rect x="1090" y="104" width="17" height="17" rx="3"/>
    <rect x="1112" y="104" width="17" height="17" rx="3"/>
    <rect x="1134" y="104" width="17" height="17" rx="3"/>
    <rect x="1156" y="104" width="17" height="17" rx="3"/>
    <rect x="1178" y="104" width="17" height="17" rx="3"/>
    <rect x="1200" y="104" width="17" height="17" rx="3"/>
    <rect x="1222" y="104" width="17" height="17" rx="3"/>
    <rect x="34" y="126.5" width="17" height="17" rx="3"/>
    <rect x="56" y="126.5" width="17" height="17" rx="3"/>
    <rect x="78" y="126.5" width="17" height="17" rx="3"/>
    <rect x="100" y="126.5" width="17" height="17" rx="3"/>
    <rect x="122" y="126.5" width="17" height="17" rx="3"/>
    <rect x="144" y="126.5" width="17" height="17" rx="3"/>
    <rect x="166" y="126.5" width="17" height="17" rx="3"/>
    <rect x="188" y="126.5" width="17" height="17" rx="3"/>
    <rect x="210" y="126.5" width="17" height="17" rx="3"/>
    <rect x="232" y="126.5" width="17" height="17" rx="3"/>
    <rect x="254" y="126.5" width="17" height="17" rx="3"/>
    <rect x="276" y="126.5" width="17" height="17" rx="3"/>
    <rect x="298" y="126.5" width="17" height="17" rx="3"/>
    <rect x="320" y="126.5" width="17" height="17" rx="3"/>
    <rect x="342" y="126.5" width="17" height="17" rx="3"/>
    <rect x="364" y="126.5" width="17" height="17" rx="3"/>
    <rect x="386" y="126.5" width="17" height="17" rx="3"/>
    <rect x="408" y="126.5" width="17" height="17" rx="3"/>
    <rect x="430" y="126.5" width="17" height="17" rx="3"/>
    <rect x="452" y="126.5" width="17" height="17" rx="3"/>
    <rect x="474" y="126.5" width="17" height="17" rx="3"/>
    <rect x="496" y="126.5" width="17" height="17" rx="3"/>
    <rect x="518" y="126.5" width="17" height="17" rx="3"/>
    <rect x="540" y="126.5" width="17" height="17" rx="3"/>
    <rect x="562" y="126.5" width="17" height="17" rx="3"/>
    <rect x="584" y="126.5" width="17" height="17" rx="3"/>
    <rect x="606" y="126.5" width="17" height="17" rx="3"/>
    <rect x="628" y="126.5" width="17" height="17" rx="3"/>
    <rect x="650" y="126.5" width="17" height="17" rx="3"/>
    <rect x="672" y="126.5" width="17" height="17" rx="3"/>
    <rect x="694" y="126.5" width="17" height="17" rx="3"/>
    <rect x="716" y="126.5" width="17" height="17" rx="3"/>
    <rect x="738" y="126.5" width="17" height="17" rx="3"/>
    <rect x="760" y="126.5" width="17" height="17" rx="3"/>
    <rect x="782" y="126.5" width="17" height="17" rx="3"/>
    <rect x="804" y="126.5" width="17" height="17" rx="3"/>
    <rect x="826" y="126.5" width="17" height="17" rx="3"/>
    <rect x="848" y="126.5" width="17" height="17" rx="3"/>
    <rect x="870" y="126.5" width="17" height="17" rx="3"/>
    <rect x="892" y="126.5" width="17" height="17" rx="3"/>
    <rect x="914" y="126.5" width="17" height="17" rx="3"/>
    <rect x="936" y="126.5" width="17" height="17" rx="3"/>
    <rect x="958" y="126.5" width="17" height="17" rx="3"/>
    <rect x="980" y="126.5" width="17" height="17" rx="3"/>
    <rect x="1002" y="126.5" width="17" height="17" rx="3"/>
    <rect x="1024" y="126.5" width="17" height="17" rx="3"/>
    <rect x="1046" y="126.5" width="17" height="17" rx="3"/>
    <rect x="1068" y="126.5" width="17" height="17" rx="3"/>
    <rect x="1090" y="126.5" width="17" height="17" rx="3"/>
    <rect x="1112" y="126.5" width="17" height="17" rx="3"/>
    <rect x="1134" y="126.5" width="17" height="17" rx="3"/>
    <rect x="1156" y="126.5" width="17" height="17" rx="3"/>
    <rect x="1178" y="126.5" width="17" height="17" rx="3"/>
    <rect x="1200" y="126.5" width="17" height="17" rx="3"/>
    <rect x="1222" y="126.5" width="17" height="17" rx="3"/>
    <rect x="34" y="149" width="17" height="17" rx="3"/>
    <rect x="56" y="149" width="17" height="17" rx="3"/>
    <rect x="78" y="149" width="17" height="17" rx="3"/>
    <rect x="100" y="149" width="17" height="17" rx="3"/>
    <rect x="122" y="149" width="17" height="17" rx="3"/>
    <rect x="144" y="149" width="17" height="17" rx="3"/>
    <rect x="166" y="149" width="17" height="17" rx="3"/>
    <rect x="188" y="149" width="17" height="17" rx="3"/>
    <rect x="210" y="149" width="17" height="17" rx="3"/>
    <rect x="232" y="149" width="17" height="17" rx="3"/>
    <rect x="254" y="149" width="17" height="17" rx="3"/>
    <rect x="276" y="149" width="17" height="17" rx="3"/>
    <rect x="298" y="149" width="17" height="17" rx="3"/>
    <rect x="320" y="149" width="17" height="17" rx="3"/>
    <rect x="342" y="149" width="17" height="17" rx="3"/>
    <rect x="364" y="149" width="17" height="17" rx="3"/>
    <rect x="386" y="149" width="17" height="17" rx="3"/>
    <rect x="408" y="149" width="17" height="17" rx="3"/>
    <rect x="430" y="149" width="17" height="17" rx="3"/>
    <rect x="452" y="149" width="17" height="17" rx="3"/>
    <rect x="474" y="149" width="17" height="17" rx="3"/>
    <rect x="496" y="149" width="17" height="17" rx="3"/>
    <rect x="518" y="149" width="17" height="17" rx="3"/>
    <rect x="540" y="149" width="17" height="17" rx="3"/>
    <rect x="562" y="149" width="17" height="17" rx="3"/>
    <rect x="584" y="149" width="17" height="17" rx="3"/>
    <rect x="606" y="149" width="17" height="17" rx="3"/>
    <rect x="628" y="149" width="17" height="17" rx="3"/>
    <rect x="650" y="149" width="17" height="17" rx="3"/>
    <rect x="672" y="149" width="17" height="17" rx="3"/>
    <rect x="694" y="149" width="17" height="17" rx="3"/>
    <rect x="716" y="149" width="17" height="17" rx="3"/>
    <rect x="738" y="149" width="17" height="17" rx="3"/>
    <rect x="760" y="149" width="17" height="17" rx="3"/>
    <rect x="782" y="149" width="17" height="17" rx="3"/>
    <rect x="804" y="149" width="17" height="17" rx="3"/>
    <rect x="826" y="149" width="17" height="17" rx="3"/>
    <rect x="848" y="149" width="17" height="17" rx="3"/>
    <rect x="870" y="149" width="17" height="17" rx="3"/>
    <rect x="892" y="149" width="17" height="17" rx="3"/>
    <rect x="914" y="149" width="17" height="17" rx="3"/>
    <rect x="936" y="149" width="17" height="17" rx="3"/>
    <rect x="958" y="149" width="17" height="17" rx="3"/>
    <rect x="980" y="149" width="17" height="17" rx="3"/>
    <rect x="1002" y="149" width="17" height="17" rx="3"/>
    <rect x="1024" y="149" width="17" height="17" rx="3"/>
    <rect x="1046" y="149" width="17" height="17" rx="3"/>
    <rect x="1068" y="149" width="17" height="17" rx="3"/>
    <rect x="1090" y="149" width="17" height="17" rx="3"/>
    <rect x="1112" y="149" width="17" height="17" rx="3"/>
    <rect x="1134" y="149" width="17" height="17" rx="3"/>
    <rect x="1156" y="149" width="17" height="17" rx="3"/>
    <rect x="1178" y="149" width="17" height="17" rx="3"/>
    <rect x="1200" y="149" width="17" height="17" rx="3"/>
    <rect x="1222" y="149" width="17" height="17" rx="3"/>
  </g>
  <g fill="#8000a8">
    <rect x="535" y="59" width="17" height="17" rx="4"/>
    <rect x="557" y="59" width="17" height="17" rx="4"/>
    <rect x="579" y="59" width="17" height="17" rx="4"/>
    <rect x="601" y="59" width="17" height="17" rx="4"/>
  </g>
  <g fill="#0e4429">
    <rect x="1099" y="82" width="17" height="17" rx="3"/>
    <rect x="1121" y="104" width="17" height="17" rx="3"/>
    <rect x="1143" y="104" width="17" height="17" rx="3"/>
    <rect x="1165" y="14" width="17" height="17" rx="3"/>
    <rect x="1165" y="37" width="17" height="17" rx="3"/>
    <rect x="1165" y="59" width="17" height="17" rx="3"/>
    <rect x="1165" y="82" width="17" height="17" rx="3"/>
    <rect x="1165" y="104" width="17" height="17" rx="3"/>
    <rect x="1165" y="127" width="17" height="17" rx="3"/>
    <rect x="1187" y="37" width="17" height="17" rx="3"/>
    <rect x="1187" y="82" width="17" height="17" rx="3"/>
  </g>
  <g fill="#00c853">
    <rect x="1187" y="14" width="17" height="17" rx="3"/>
    <rect x="1187" y="127" width="17" height="17" rx="3"/>
  </g>
</svg>